# xmcd
#
# Track frame offsets:
#	150
#	11682
#	22780
#	33722
#	47392
#	58335
#	68967
#	79175
#	89702
#	102365
#	113325
#	123377
#	132285
#	144892
#	157202
#	168010
#	178950
#	189667
#	201470
#	213715
#
# Disc length: 3011 seconds
#
# Revision: 0
# Processed by: cddbd v1.5PL3 Copyright (c) Steve Scherf et al.
# Submitted via: dBpowerAMP V4.0
#
DISCID=220bc114
DTITLE=Charlie Louvin - Greatest Hits
DYEAR=1900
DGENRE=Country
TTITLE0=I Don't Love You Anymore
TTITLE1=Less And Less
TTITLE2=See The Big Man Cry
TTITLE3=Think I'll Go Somewhere And Cry Myself To Sleep
TTITLE4=You Finally Said Something Good (When You Said Goodbye)
TTITLE5=To Tell The Truth (I Told A Lie)
TTITLE6=Off And On
TTITLE7=The Only Way Out (Is To Walk Over Me)
TTITLE8=Will You Visit Me On Sundays?
TTITLE9=Hey Daddy
TTITLE10=What Are Those Things (With Big Black Wings)
TTITLE11=Let's Put Our World Back Together
TTITLE12=Little Reasons
TTITLE13=Here's A Toast To Mama
TTITLE14=Come And Get It Mama
TTITLE15=Sittin' Bull
TTITLE16=Something To Brag About
TTITLE17=Did You Ever
TTITLE18=Baby, You've Got What It Takes
TTITLE19=You're My Wife, She's My Woman
EXTD=
EXTT0=
EXTT1=
EXTT2=
EXTT3=
EXTT4=
EXTT5=
EXTT6=
EXTT7=
EXTT8=
EXTT9=
EXTT10=
EXTT11=
EXTT12=
EXTT13=
EXTT14=
EXTT15=
EXTT16=
EXTT17=
EXTT18=
EXTT19=
PLAYORDER=
